HIERARCHY
ROOT Hips
{
	OFFSET -0.001795 -0.223333 0.028219
	CHANNELS 6 Xposition Yposition Zposition Zrotation Yrotation Xrotation 
	JOINT LeftUpLeg
	{
		OFFSET 0.069520 -0.091406 -0.006815
		CHANNELS 3 Zrotation Yrotation Xrotation
		JOINT LeftLeg
		{
			OFFSET 0.034277 -0.375199 -0.004496
			CHANNELS 3 Zrotation Yrotation Xrotation
			JOINT LeftFoot
			{
				OFFSET -0.013596 -0.397961 -0.043693
				CHANNELS 3 Zrotation Yrotation Xrotation
				JOINT LeftToe
				{
					OFFSET 0.026358 -0.055791 0.119288
					CHANNELS 3 Zrotation Yrotation Xrotation
					End Site
					{
						OFFSET 0.000000 0.000000 0.000000
					}
				}
			}
		}
	}
	JOINT RightUpLeg
	{
		OFFSET -0.067670 -0.090522 -0.004320
		CHANNELS 3 Zrotation Yrotation Xrotation
		JOINT RightLeg
		{
			OFFSET -0.038290 -0.382569 -0.008850
			CHANNELS 3 Zrotation Yrotation Xrotation
			JOINT RightFoot
			{
				OFFSET 0.015774 -0.398415 -0.042312
				CHANNELS 3 Zrotation Yrotation Xrotation
				JOINT RightToe
				{
					OFFSET -0.025372 -0.048144 0.123348
					CHANNELS 3 Zrotation Yrotation Xrotation
					End Site
					{
						OFFSET 0.000000 0.000000 0.000000
					}
				}
			}
		}
	}
	JOINT Spine
	{
		OFFSET -0.002533 0.108963 -0.026696
		CHANNELS 3 Zrotation Yrotation Xrotation
		JOINT Spine1
		{
			OFFSET 0.005487 0.135180 0.001092
			CHANNELS 3 Zrotation Yrotation Xrotation
			JOINT Spine2
			{
				OFFSET 0.001457 0.052922 0.025425
				CHANNELS 3 Zrotation Yrotation Xrotation
				JOINT Neck
				{
					OFFSET -0.002778 0.213870 -0.042857
					CHANNELS 3 Zrotation Yrotation Xrotation
					JOINT Head
					{
						OFFSET 0.005152 0.064970 0.051349
						CHANNELS 3 Zrotation Yrotation Xrotation
						End Site
						{
							OFFSET 0.000000 0.000000 0.000000
						}
					}
				}
				JOINT LeftShoulder
				{
					OFFSET 0.078845 0.121749 -0.034090
					CHANNELS 3 Zrotation Yrotation Xrotation
					JOINT LeftArm
					{
						OFFSET 0.090977 0.030469 -0.008868
						CHANNELS 3 Zrotation Yrotation Xrotation
						JOINT LeftForeArm
						{
							OFFSET 0.259612 -0.012772 -0.027456
							CHANNELS 3 Zrotation Yrotation Xrotation
							JOINT LeftHand
							{
								OFFSET 0.249234 0.008986 -0.001171
								CHANNELS 3 Zrotation Yrotation Xrotation
								End Site
								{
									OFFSET 0.000000 0.000000 0.000000
								}
							}
						}
					}
				}
				JOINT RightShoulder
				{
					OFFSET -0.081759 0.118833 -0.038615
					CHANNELS 3 Zrotation Yrotation Xrotation
					JOINT RightArm
					{
						OFFSET -0.096012 0.032551 -0.009143
						CHANNELS 3 Zrotation Yrotation Xrotation
						JOINT RightForeArm
						{
							OFFSET -0.253742 -0.013329 -0.021401
							CHANNELS 3 Zrotation Yrotation Xrotation
							JOINT RightHand
							{
								OFFSET -0.255298 0.007772 -0.005559
								CHANNELS 3 Zrotation Yrotation Xrotation
								End Site
								{
									OFFSET 0.000000 0.000000 0.000000
								}
							}
						}
					}
				}
			}
		}
	}
}
MOTION
Frames: 6
Frame Time: 0.050000
0.808541 0.934929 0.283208 -1.202873 -5.663909 2.227512 6.336863 -0.340045 -9.684553 3.900692 -1.449262 17.693356 -3.679439 -8.894965 -1.595690 0.000000 0.000000 0.000000 2.379644 1.921579 -15.797626 -11.683404 5.218526 24.157843 11.659623 29.246813 1.753126 0.000000 0.000000 0.000000 4.459451 -1.168757 15.175262 -2.412066 1.121584 -26.339953 -2.451290 6.919686 33.082123 14.101370 -6.237423 -26.616937 0.000000 0.000000 0.000000 -18.351529 -5.890269 1.637139 -49.603798 -8.194007 -5.323316 -10.399766 -27.178030 3.794267 0.000000 0.000000 0.000000 25.826262 -9.636774 -6.595612 56.586705 9.606133 -4.208022 1.579626 28.155654 2.172896 0.000000 0.000000 0.000000 
0.828565 0.934875 0.277250 -1.433674 -12.193750 2.326149 6.006395 -0.188613 -7.656430 1.573296 -0.519938 16.609343 0.353280 -0.056675 -2.752503 0.000000 0.000000 0.000000 3.223264 2.333220 -17.381982 -6.875500 4.774602 28.307875 4.172668 12.406599 -1.206944 0.000000 0.000000 0.000000 2.764982 -0.811901 16.147752 -0.757943 0.727095 -27.430598 -3.225436 6.610338 33.441532 14.691910 -7.255421 -26.928784 0.000000 0.000000 0.000000 -17.068102 -5.088564 2.483451 -50.230338 -8.455872 -5.638158 -8.773062 -25.683973 3.458112 0.000000 0.000000 0.000000 24.649955 -8.555074 -7.209294 58.871275 7.796469 -4.996273 0.687977 26.841919 1.579183 0.000000 0.000000 0.000000 
0.844075 0.937006 0.271614 -1.919896 -18.099863 2.529338 6.086803 -0.045429 -6.552699 -0.693293 0.298530 14.651367 3.038495 6.622932 0.444688 0.000000 0.000000 0.000000 3.467812 2.546587 -18.022375 -6.300975 5.359443 29.755596 2.819350 7.911745 -0.403042 0.000000 0.000000 0.000000 2.745993 -0.669834 16.262640 -2.057715 0.923863 -27.191469 -3.257064 6.027523 32.967199 15.172160 -8.239856 -26.545566 0.000000 0.000000 0.000000 -15.401253 -5.570789 3.635718 -51.140063 -9.064436 -5.493910 -4.815692 -24.804117 2.602124 0.000000 0.000000 0.000000 25.482916 -7.545431 -8.320711 59.361243 5.724424 -5.731779 1.033046 25.267844 1.246253 0.000000 0.000000 0.000000 
0.855828 0.941650 0.265985 -3.183596 -23.698265 2.919836 5.788718 0.095593 -3.962192 -1.691177 0.594789 11.169155 6.442604 13.677382 3.406345 0.000000 0.000000 0.000000 4.070735 2.807488 -18.602260 -0.620405 3.882326 30.331263 -2.302660 -7.201158 2.227493 0.000000 0.000000 0.000000 2.923813 -0.565351 15.979229 -2.509096 0.938971 -26.838325 -2.676191 5.827054 32.424753 14.921882 -8.744724 -25.686013 0.000000 0.000000 0.000000 -13.923829 -5.270218 4.056281 -52.351564 -9.113744 -5.351886 -4.655695 -25.637814 2.809842 0.000000 0.000000 0.000000 25.290448 -6.448912 -9.068030 58.289748 3.794957 -6.173488 3.101387 24.392525 1.310378 0.000000 0.000000 0.000000 
0.863924 0.944842 0.260927 -3.092030 -29.416941 4.005277 5.625614 0.194580 -3.360288 -3.742821 1.138787 8.523113 9.256324 18.684234 6.032505 0.000000 0.000000 0.000000 2.809708 2.728456 -18.628129 4.998235 2.324305 28.832904 -6.359930 -16.566443 3.805349 0.000000 0.000000 0.000000 1.659811 -0.260019 15.572096 -1.444744 0.635280 -26.957623 -2.909173 5.540041 31.888205 14.365545 -8.817657 -26.056010 0.000000 0.000000 0.000000 -13.961500 -4.629182 4.485626 -52.393094 -9.308084 -5.198211 -3.939628 -25.395506 2.715304 0.000000 0.000000 0.000000 23.716305 -4.514582 -8.912150 59.609300 1.748922 -7.189429 3.306585 24.988168 1.098162 0.000000 0.000000 0.000000 
0.868690 0.946274 0.256456 -3.591967 -34.729888 4.559695 5.045230 0.279867 -1.960648 -4.171320 1.174555 5.695100 11.724432 22.741800 8.209620 0.000000 0.000000 0.000000 2.590102 2.659147 -18.189035 5.881444 2.329701 27.505213 -7.979789 -20.051632 5.540880 0.000000 0.000000 0.000000 1.713667 -0.097721 16.481073 -1.785068 0.743861 -27.938577 -2.427338 5.015010 31.289558 14.617601 -9.331839 -26.336557 0.000000 0.000000 0.000000 -14.072723 -4.236821 4.938882 -52.279128 -8.842660 -5.171892 -3.621753 -25.258705 2.633594 0.000000 0.000000 0.000000 23.866591 -4.194660 -10.215102 58.928797 -0.899607 -8.026386 4.115939 26.899365 1.011673 0.000000 0.000000 0.000000 
